<svg width="53" height="44" viewBox="0 0 53 44" fill="none" xmlns="http://www.w3.org/2000/svg">
<mask id="mask0_1_973" style="mask-type:luminance" maskUnits="userSpaceOnUse" x="2" y="6" width="47" height="31">
<path d="M2.57812 6.15393H48.6147V36.8939H2.57812V6.15393Z" fill="white"/>
</mask>
<g mask="url(#mask0_1_973)">
<path d="M43.2989 15.2498H37.4337C37.4051 15.251 37.3764 15.2486 37.3484 15.2432C37.3204 15.2378 37.2935 15.2295 37.2673 15.2181C37.2411 15.2067 37.2162 15.1929 37.193 15.1761C37.1698 15.1594 37.1491 15.1408 37.1302 15.1192C37.1113 15.0983 37.0955 15.0749 37.0821 15.0503C37.0681 15.0252 37.0577 14.9994 37.0498 14.9725C37.0419 14.9455 37.0376 14.9174 37.0358 14.8892C37.0346 14.8616 37.0358 14.8335 37.0407 14.8059L37.8493 8.69386C37.8535 8.66631 37.8554 8.63875 37.8542 8.61059C37.8523 8.58244 37.8481 8.55488 37.8401 8.52793C37.8322 8.50097 37.8219 8.47521 37.8085 8.45065C37.7951 8.42609 37.7792 8.40272 37.7603 8.38176C37.7414 8.36019 37.7207 8.34162 37.6982 8.32485C37.675 8.30808 37.6506 8.2937 37.6244 8.28232C37.5988 8.27093 37.5714 8.26255 37.5434 8.25716C37.516 8.25176 37.4873 8.24937 37.4587 8.24997H11.4423C11.3375 8.25236 11.2339 8.26434 11.1309 8.28471C11.0285 8.30508 10.9286 8.33443 10.8311 8.37217C10.7336 8.40991 10.6404 8.45544 10.5508 8.50936C10.4618 8.56327 10.3777 8.62437 10.2997 8.69266C10.2211 8.76095 10.1492 8.83524 10.084 8.91611C10.0188 8.99638 9.96154 9.08204 9.91158 9.1725C9.86161 9.26296 9.81956 9.35701 9.78666 9.45465C9.75314 9.5523 9.72877 9.65234 9.71353 9.75417L9.55083 10.9822H19.5804C19.6743 10.9798 19.7681 10.9876 19.8601 11.0056C19.9527 11.0236 20.0423 11.0511 20.1282 11.0883C20.2148 11.1254 20.2958 11.1715 20.372 11.2266C20.4476 11.2811 20.517 11.344 20.5786 11.4135C20.6407 11.4836 20.6943 11.5591 20.7388 11.6406C20.7839 11.722 20.8193 11.8077 20.8449 11.897C20.8711 11.9862 20.8863 12.0767 20.8918 12.1695C20.8973 12.2618 20.8918 12.354 20.8766 12.4457C20.8613 12.5445 20.8376 12.6416 20.8053 12.7368C20.7723 12.8315 20.7315 12.9231 20.6828 13.0112C20.634 13.0993 20.578 13.1819 20.5146 13.2604C20.4512 13.3389 20.3811 13.4114 20.305 13.4778C20.2282 13.5437 20.1465 13.6031 20.06 13.6558C19.9729 13.7079 19.8821 13.7528 19.7876 13.7894C19.6925 13.8259 19.595 13.8547 19.4957 13.8744C19.3958 13.8942 19.2946 13.9056 19.1929 13.9086H5.54911C5.48086 13.9092 5.41383 13.9158 5.34741 13.9283C5.28038 13.9403 5.21517 13.9583 5.1518 13.9822C5.08843 14.0062 5.0281 14.035 4.9696 14.0697C4.91171 14.1039 4.85687 14.1434 4.80568 14.1871C4.75449 14.2309 4.70818 14.2794 4.66552 14.3315C4.62348 14.3836 4.5857 14.4387 4.5534 14.4974C4.5211 14.5561 4.49429 14.6172 4.47296 14.6807C4.45164 14.7436 4.43579 14.8083 4.42665 14.8748V14.9024C4.4169 14.9617 4.41386 15.0216 4.41751 15.0821C4.42117 15.142 4.43153 15.2013 4.44859 15.2594C4.46504 15.3169 4.4882 15.3726 4.51745 15.426C4.54609 15.4787 4.58082 15.5278 4.62104 15.5739C4.66126 15.6194 4.70574 15.6602 4.7551 15.6961C4.80385 15.7321 4.85687 15.7626 4.91232 15.7872C4.96838 15.8117 5.02627 15.8303 5.0866 15.8429C5.14632 15.8549 5.20725 15.8609 5.26819 15.8603H18.943C19.0375 15.8579 19.1307 15.8651 19.2233 15.883C19.3153 15.901 19.4049 15.9286 19.4915 15.9657C19.5774 16.0028 19.6584 16.049 19.7346 16.1041C19.8102 16.1592 19.879 16.2215 19.9412 16.2916C20.0027 16.3611 20.0563 16.4371 20.1008 16.5186C20.1459 16.6001 20.1807 16.6857 20.2062 16.7744C20.2318 16.8637 20.2477 16.9547 20.2526 17.047C20.2574 17.1398 20.2526 17.2315 20.2367 17.3231C20.2215 17.4226 20.1977 17.5196 20.1654 17.6143C20.1331 17.7095 20.0923 17.8012 20.0435 17.8892C19.9948 17.9773 19.9387 18.0606 19.8754 18.139C19.812 18.2169 19.7419 18.2894 19.6657 18.3559C19.589 18.4224 19.5073 18.4817 19.4208 18.5338C19.3336 18.5865 19.2428 18.6309 19.1478 18.6674C19.0533 18.7039 18.9558 18.7327 18.8559 18.7525C18.7559 18.7722 18.6548 18.7836 18.553 18.786H8.41131C8.34489 18.7878 8.27908 18.7956 8.21327 18.8088C8.14806 18.8219 8.08469 18.8405 8.02253 18.8645C7.96099 18.8884 7.90127 18.9178 7.8446 18.9519C7.78793 18.9861 7.7343 19.025 7.68433 19.0688C7.63437 19.1119 7.58866 19.1592 7.54723 19.2107C7.50579 19.2622 7.46923 19.3168 7.43754 19.3743C7.40585 19.4318 7.37904 19.4917 7.35771 19.5534C7.337 19.6157 7.32115 19.6792 7.3114 19.7439V19.7714C7.30165 19.8313 7.2986 19.8912 7.30226 19.9511C7.30592 20.0117 7.31628 20.0704 7.33334 20.1285C7.34979 20.1866 7.37295 20.2423 7.4022 20.295C7.43145 20.3483 7.46557 20.3974 7.50579 20.443C7.54601 20.4885 7.59049 20.5292 7.63985 20.5658C7.6886 20.6017 7.74162 20.6317 7.79707 20.6568C7.85313 20.6814 7.91102 20.7 7.97135 20.7119C8.03107 20.7245 8.092 20.7305 8.15294 20.7293H18.2977C18.3909 20.7281 18.4836 20.7365 18.575 20.7545C18.6664 20.773 18.7547 20.8012 18.84 20.8383C18.9247 20.8755 19.0052 20.9216 19.0801 20.9767C19.1551 21.0312 19.2233 21.0929 19.2843 21.1624C19.3452 21.2319 19.3982 21.3068 19.4427 21.3877C19.4872 21.4685 19.5219 21.553 19.5475 21.6411C19.5731 21.7291 19.5883 21.819 19.5938 21.9106C19.5999 22.0023 19.595 22.0933 19.5804 22.1844C19.5652 22.2832 19.5414 22.3803 19.5091 22.4755C19.4768 22.5708 19.436 22.6624 19.3879 22.7505C19.3391 22.8386 19.2831 22.9218 19.2191 23.0003C19.1557 23.0788 19.0856 23.1513 19.0094 23.2178C18.9333 23.2842 18.8516 23.3436 18.7645 23.3957C18.6773 23.4478 18.5865 23.4927 18.4915 23.5293C18.3964 23.5658 18.2989 23.594 18.199 23.6137C18.099 23.6335 17.9985 23.6449 17.8967 23.6473H7.06156C6.99514 23.6491 6.92872 23.6569 6.86352 23.67C6.79831 23.6826 6.73494 23.7018 6.67278 23.7257C6.61063 23.7497 6.55152 23.7791 6.49485 23.8132C6.43818 23.8474 6.38455 23.8863 6.33458 23.93C6.28462 23.9732 6.23891 24.0205 6.19748 24.072C6.15604 24.1229 6.11948 24.1774 6.08779 24.2349C6.0561 24.2924 6.02929 24.3523 6.00796 24.4146C5.98724 24.4769 5.9714 24.5404 5.96165 24.6051C5.9519 24.6644 5.94885 24.7244 5.95251 24.7849C5.95617 24.8448 5.96653 24.9041 5.98359 24.9622C6.00004 25.0197 6.0232 25.0754 6.05245 25.1287C6.08109 25.1814 6.11582 25.2311 6.15604 25.2767C6.19626 25.3222 6.24074 25.3629 6.2901 25.3989C6.33885 25.4348 6.39186 25.4654 6.44732 25.4899C6.50338 25.5151 6.56127 25.5331 6.6216 25.5456C6.68131 25.5582 6.74225 25.5636 6.80319 25.563H7.61426L7.12859 29.2813C7.11275 29.3754 7.10726 29.47 7.11275 29.5647C7.11823 29.6599 7.13408 29.7534 7.16028 29.845C7.18648 29.9367 7.22304 30.0247 7.26875 30.1086C7.31506 30.1925 7.3699 30.2703 7.43328 30.3422C7.49665 30.4141 7.56734 30.4782 7.64534 30.5345C7.72333 30.5908 7.80682 30.6387 7.89579 30.6771C7.98414 30.7154 8.07616 30.7436 8.17122 30.7621C8.26628 30.7801 8.36195 30.7879 8.45884 30.7855H10.5216C10.1486 33.5849 12.1577 35.854 15.0035 35.854C17.8486 35.854 20.4561 33.5849 20.829 30.7855H31.5996C31.2291 33.5849 33.2382 35.854 36.0894 35.854C38.9407 35.854 41.5421 33.5849 41.9126 30.7855H44.7802C44.8436 30.7837 44.9039 30.7717 44.9624 30.7484C45.0209 30.7256 45.074 30.6933 45.1203 30.6519C45.1672 30.61 45.2056 30.5621 45.2348 30.5076C45.2641 30.4524 45.283 30.3943 45.2915 30.3332L46.3743 22.1646L43.2989 15.2498ZM18.7523 30.885C18.7157 31.0814 18.6633 31.2737 18.5945 31.4618C18.525 31.6499 18.4409 31.8308 18.341 32.0052C18.241 32.1795 18.1271 32.3442 17.9991 32.4994C17.8718 32.6545 17.7316 32.7989 17.5793 32.9313C17.4269 33.0631 17.2648 33.1823 17.0924 33.2883C16.9193 33.3938 16.7395 33.4848 16.5513 33.5609C16.3636 33.637 16.1704 33.6969 15.9724 33.7412C15.7743 33.7855 15.5738 33.8137 15.3709 33.8251C15.2691 33.8311 15.1674 33.8311 15.0656 33.8263C14.9638 33.8209 14.8627 33.8095 14.7621 33.7927C14.6616 33.776 14.5623 33.7538 14.4642 33.7256C14.3667 33.6975 14.2704 33.6645 14.1765 33.6256C14.0827 33.5867 13.9913 33.5429 13.9023 33.4938C13.8134 33.4447 13.7274 33.3908 13.6452 33.3321C13.5623 33.2733 13.4831 33.2105 13.4081 33.1428C13.3326 33.0751 13.2619 33.0032 13.1949 32.9277C13.1278 32.8522 13.0657 32.7725 13.0078 32.6899C12.9505 32.6072 12.8975 32.5215 12.85 32.4329C12.8024 32.3442 12.7598 32.2538 12.7226 32.1603C12.6854 32.0669 12.6537 31.9716 12.6281 31.8746C12.6019 31.7775 12.5818 31.6793 12.5672 31.5804C12.5526 31.481 12.5434 31.3816 12.5404 31.2809C12.538 31.1809 12.5404 31.0808 12.5495 30.9808C12.5581 30.8808 12.5727 30.7819 12.5928 30.6837C12.6287 30.4872 12.6812 30.2955 12.75 30.108C12.8189 29.9205 12.903 29.7402 13.0023 29.5664C13.1016 29.3927 13.215 29.228 13.3423 29.0728C13.4697 28.9177 13.6086 28.7739 13.7603 28.6415C13.9121 28.5091 14.0736 28.3905 14.2454 28.2845C14.4172 28.1785 14.5964 28.0874 14.7835 28.0113C14.9706 27.9346 15.1631 27.8741 15.3605 27.8292C15.558 27.7843 15.7579 27.7555 15.9602 27.7436C16.0619 27.737 16.1643 27.7364 16.2667 27.7412C16.3684 27.7459 16.4702 27.7567 16.5708 27.7729C16.6719 27.7891 16.7712 27.8112 16.87 27.8388C16.9681 27.8664 17.0643 27.8993 17.1588 27.9382C17.2532 27.9766 17.3453 28.0203 17.4348 28.0694C17.5244 28.118 17.6103 28.1719 17.6932 28.2306C17.7767 28.2893 17.8559 28.3522 17.9315 28.4199C18.007 28.4876 18.0789 28.5595 18.146 28.6349C18.2136 28.711 18.2758 28.7901 18.3343 28.8728C18.3922 28.956 18.4452 29.0417 18.4933 29.1303C18.5415 29.219 18.5841 29.3107 18.6213 29.4041C18.6584 29.4976 18.6901 29.5934 18.7163 29.6905C18.7425 29.7875 18.7633 29.8857 18.7779 29.9858C18.7925 30.0852 18.8017 30.1853 18.8047 30.2859C18.8077 30.3859 18.8047 30.4866 18.7962 30.5866C18.787 30.6873 18.773 30.7867 18.7523 30.885ZM39.8328 30.885C39.7968 31.0814 39.7444 31.2731 39.6756 31.4606C39.6067 31.6481 39.5226 31.8284 39.4233 32.0022C39.324 32.1759 39.2106 32.3406 39.0833 32.4958C38.9565 32.6509 38.817 32.7947 38.6652 32.9271C38.5135 33.0595 38.352 33.1781 38.1802 33.2841C38.0089 33.3902 37.8292 33.4812 37.6421 33.5573C37.455 33.634 37.2625 33.6945 37.065 33.7394C36.8676 33.7843 36.6677 33.8125 36.4654 33.8251C36.3636 33.8311 36.2619 33.8311 36.1601 33.8263C36.0584 33.8209 35.9572 33.8095 35.8566 33.7927C35.7561 33.776 35.6568 33.7538 35.5593 33.7256C35.4612 33.6975 35.3655 33.6645 35.271 33.6256C35.1772 33.5867 35.0858 33.5429 34.9968 33.4938C34.9079 33.4447 34.8219 33.3908 34.7397 33.3321C34.6568 33.2733 34.5782 33.2105 34.5026 33.1428C34.4277 33.0751 34.3564 33.0032 34.2894 32.9277C34.2223 32.8522 34.1602 32.7725 34.1029 32.6899C34.045 32.6072 33.992 32.5215 33.9445 32.4329C33.8969 32.3442 33.8543 32.2538 33.8171 32.1603C33.7799 32.0669 33.7488 31.9716 33.7226 31.8746C33.6964 31.7775 33.6763 31.6793 33.6617 31.5804C33.6471 31.481 33.6385 31.3816 33.6355 31.2809C33.6325 31.1809 33.6355 31.0808 33.644 30.9808C33.6526 30.8808 33.6672 30.7819 33.6873 30.6837C33.7239 30.4872 33.7763 30.2955 33.8451 30.108C33.9134 29.9205 33.9975 29.7402 34.0968 29.5664C34.1961 29.3927 34.3095 29.228 34.4368 29.0728C34.5642 28.9177 34.7037 28.7739 34.8548 28.6415C35.0066 28.5091 35.1681 28.3905 35.3399 28.2845C35.5117 28.1785 35.6909 28.0874 35.8786 28.0113C36.0657 27.9346 36.2576 27.8741 36.4551 27.8292C36.6525 27.7843 36.8524 27.7555 37.0547 27.7436C37.1564 27.7376 37.2582 27.737 37.36 27.7424C37.4617 27.7477 37.5629 27.7591 37.6634 27.7759C37.764 27.7927 37.8633 27.8148 37.9614 27.843C38.0589 27.8705 38.1552 27.9041 38.249 27.943C38.3429 27.982 38.4349 28.0257 38.5232 28.0748C38.6122 28.1239 38.6981 28.1779 38.781 28.2366C38.8633 28.2953 38.9425 28.3582 39.0174 28.4259C39.093 28.4936 39.1637 28.5654 39.2307 28.6409C39.2978 28.7164 39.3599 28.7961 39.4178 28.8787C39.4757 28.9614 39.5281 29.0471 39.5756 29.1351C39.6238 29.2238 39.6658 29.3148 39.703 29.4083C39.7402 29.5018 39.7718 29.597 39.798 29.694C39.8236 29.7911 39.8444 29.8893 39.8584 29.9882C39.873 30.0876 39.8821 30.1871 39.8852 30.2877C39.8882 30.3877 39.8852 30.4878 39.8767 30.5878C39.8675 30.6879 39.8535 30.7867 39.8328 30.885ZM36.0925 22.173L36.6787 17.7562H41.9516L43.9777 22.1928L36.0925 22.173Z" fill="#3A2215"/>
</g>
</svg>
