<svg width="73" height="44" viewBox="0 0 73 44" fill="none" xmlns="http://www.w3.org/2000/svg">
<path d="M4.75159 15.696L7.05559 2.688H6.09559C5.47159 2.688 4.96759 2.712 4.58359 2.76C4.19959 2.808 3.90359 2.912 3.69559 3.072C3.48759 3.216 3.34359 3.432 3.26359 3.72L2.56759 6.192H0.719594L1.65559 0.959999H16.9436L16.0076 6.192H14.1836L14.4236 3.72C14.4556 3.432 14.3836 3.216 14.2076 3.072C14.0316 2.912 13.7516 2.808 13.3676 2.76C12.9836 2.712 12.4796 2.688 11.8556 2.688H10.8956L8.56759 15.672C8.50359 16.024 8.61559 16.264 8.90359 16.392C9.19159 16.504 9.57559 16.56 10.0556 16.56H10.4156L10.1516 18H2.35159L2.61559 16.56H2.97559C3.45559 16.56 3.85559 16.504 4.17559 16.392C4.49559 16.264 4.68759 16.032 4.75159 15.696ZM21.6725 18.312C20.5205 18.312 19.5125 18.088 18.6485 17.64C17.8005 17.192 17.1365 16.56 16.6565 15.744C16.1925 14.912 15.9605 13.928 15.9605 12.792C15.9605 11.896 16.1285 11.016 16.4645 10.152C16.8005 9.272 17.2725 8.488 17.8805 7.8C18.5045 7.096 19.2565 6.536 20.1365 6.12C21.0325 5.704 22.0325 5.496 23.1365 5.496C24.0485 5.496 24.8165 5.64 25.4405 5.928C26.0645 6.2 26.5365 6.584 26.8565 7.08C27.1925 7.56 27.3605 8.104 27.3605 8.712C27.3605 9.464 27.1605 10.12 26.7605 10.68C26.3765 11.224 25.7925 11.68 25.0085 12.048C24.2245 12.416 23.2485 12.704 22.0805 12.912C20.9125 13.104 19.5525 13.224 18.0005 13.272L18.2165 11.928C19.3525 11.896 20.3045 11.808 21.0725 11.664C21.8565 11.504 22.4805 11.296 22.9445 11.04C23.4245 10.768 23.7685 10.44 23.9765 10.056C24.2005 9.656 24.3125 9.192 24.3125 8.664C24.3125 8.376 24.2565 8.12 24.1445 7.896C24.0325 7.672 23.8725 7.504 23.6645 7.392C23.4725 7.264 23.2165 7.2 22.8965 7.2C22.4485 7.2 22.0245 7.344 21.6245 7.632C21.2405 7.904 20.8965 8.296 20.5925 8.808C20.3045 9.32 20.0725 9.928 19.8965 10.632C19.7205 11.336 19.6325 12.12 19.6325 12.984C19.6325 13.752 19.7285 14.4 19.9205 14.928C20.1285 15.456 20.4245 15.856 20.8085 16.128C21.1925 16.384 21.6645 16.512 22.2245 16.512C22.7525 16.512 23.2165 16.408 23.6165 16.2C24.0165 15.976 24.3685 15.68 24.6725 15.312C24.9925 14.944 25.2645 14.536 25.4885 14.088L26.8085 15.024C26.5205 15.664 26.1285 16.232 25.6325 16.728C25.1525 17.224 24.5765 17.616 23.9045 17.904C23.2485 18.176 22.5045 18.312 21.6725 18.312ZM32.8173 18.312C31.9693 18.312 31.2253 18.12 30.5853 17.736C29.9613 17.352 29.4733 16.8 29.1213 16.08C28.7693 15.344 28.5933 14.448 28.5933 13.392C28.5933 12.544 28.7053 11.736 28.9293 10.968C29.1533 10.184 29.4813 9.464 29.9133 8.808C30.3453 8.136 30.8573 7.56 31.4493 7.08C32.0573 6.584 32.7373 6.2 33.4893 5.928C34.2413 5.64 35.0573 5.496 35.9373 5.496C36.7853 5.496 37.5133 5.648 38.1213 5.952C38.7293 6.256 39.2253 6.656 39.6093 7.152C40.0093 7.632 40.3053 8.16 40.4973 8.736L38.8653 9.456C38.7853 8.976 38.6333 8.568 38.4093 8.232C38.1853 7.88 37.8893 7.608 37.5213 7.416C37.1693 7.224 36.7533 7.128 36.2733 7.128C35.7933 7.128 35.3453 7.256 34.9293 7.512C34.5293 7.768 34.1693 8.12 33.8493 8.568C33.5293 9.016 33.2573 9.52 33.0333 10.08C32.8093 10.624 32.6413 11.208 32.5293 11.832C32.4173 12.44 32.3613 13.048 32.3613 13.656C32.3613 14.28 32.4253 14.792 32.5533 15.192C32.6813 15.592 32.8733 15.888 33.1293 16.08C33.3853 16.272 33.7053 16.368 34.0893 16.368C34.4253 16.368 34.7453 16.288 35.0493 16.128C35.3533 15.968 35.6573 15.736 35.9613 15.432C36.2813 15.112 36.6013 14.72 36.9213 14.256C37.2413 13.776 37.5773 13.224 37.9293 12.6L38.5053 13.248C37.9453 14.304 37.3853 15.208 36.8253 15.96C36.2813 16.712 35.6893 17.296 35.0493 17.712C34.4093 18.112 33.6653 18.312 32.8173 18.312ZM39.7773 18.216C38.9773 18.216 38.3293 18.008 37.8333 17.592C37.3533 17.16 37.1133 16.528 37.1133 15.696C37.1133 15.6 37.1133 15.504 37.1133 15.408C37.1293 15.312 37.1453 15.208 37.1613 15.096C37.1773 14.968 37.2013 14.84 37.2333 14.712L36.9453 15.168L39.1293 2.712C39.1613 2.504 39.1293 2.352 39.0333 2.256C38.9533 2.144 38.8173 2.056 38.6253 1.992C38.4493 1.912 38.2013 1.848 37.8813 1.8L37.6413 1.752L37.8813 0.36H43.1613L40.8333 13.656C40.7693 13.992 40.7133 14.296 40.6653 14.568C40.6333 14.824 40.6013 15.048 40.5693 15.24C40.5373 15.432 40.5213 15.6 40.5213 15.744C40.5213 15.952 40.5773 16.104 40.6893 16.2C40.8173 16.296 41.0013 16.344 41.2413 16.344C41.5293 16.344 41.8093 16.296 42.0813 16.2C42.3533 16.088 42.5373 16.016 42.6333 15.984L42.3693 17.52C42.2093 17.616 41.9933 17.72 41.7213 17.832C41.4653 17.944 41.1693 18.032 40.8333 18.096C40.5133 18.176 40.1613 18.216 39.7773 18.216ZM48.2861 18.312C47.4381 18.312 46.6941 18.12 46.0541 17.736C45.4301 17.352 44.9421 16.8 44.5901 16.08C44.2381 15.344 44.0621 14.448 44.0621 13.392C44.0621 12.544 44.1741 11.736 44.3981 10.968C44.6221 10.184 44.9501 9.464 45.3821 8.808C45.8141 8.136 46.3261 7.56 46.9181 7.08C47.5261 6.584 48.2061 6.2 48.9581 5.928C49.7101 5.64 50.5261 5.496 51.4061 5.496C52.2541 5.496 52.9821 5.648 53.5901 5.952C54.1981 6.256 54.6941 6.656 55.0781 7.152C55.4781 7.632 55.7741 8.16 55.9661 8.736L54.3341 9.456C54.2541 8.976 54.1021 8.568 53.8781 8.232C53.6541 7.88 53.3581 7.608 52.9901 7.416C52.6381 7.224 52.2221 7.128 51.7421 7.128C51.2621 7.128 50.8141 7.256 50.3981 7.512C49.9981 7.768 49.6381 8.12 49.3181 8.568C48.9981 9.016 48.7261 9.52 48.5021 10.08C48.2781 10.624 48.1101 11.208 47.9981 11.832C47.8861 12.44 47.8301 13.048 47.8301 13.656C47.8301 14.28 47.8941 14.792 48.0221 15.192C48.1501 15.592 48.3421 15.888 48.5981 16.08C48.8541 16.272 49.1741 16.368 49.5581 16.368C49.8941 16.368 50.2141 16.288 50.5181 16.128C50.8221 15.968 51.1261 15.736 51.4301 15.432C51.7501 15.112 52.0701 14.72 52.3901 14.256C52.7101 13.776 53.0461 13.224 53.3981 12.6L53.9741 13.248C53.4141 14.304 52.8541 15.208 52.2941 15.96C51.7501 16.712 51.1581 17.296 50.5181 17.712C49.8781 18.112 49.1341 18.312 48.2861 18.312ZM55.2461 18.216C54.4461 18.216 53.7981 18.008 53.3021 17.592C52.8221 17.16 52.5821 16.528 52.5821 15.696C52.5821 15.6 52.5821 15.504 52.5821 15.408C52.5981 15.312 52.6141 15.208 52.6301 15.096C52.6461 14.968 52.6701 14.84 52.7021 14.712L52.4141 15.168L54.5981 2.712C54.6301 2.504 54.5981 2.352 54.5021 2.256C54.4221 2.144 54.2861 2.056 54.0941 1.992C53.9181 1.912 53.6701 1.848 53.3501 1.8L53.1101 1.752L53.3501 0.36H58.6301L56.3021 13.656C56.2381 13.992 56.1821 14.296 56.1341 14.568C56.1021 14.824 56.0701 15.048 56.0381 15.24C56.0061 15.432 55.9901 15.6 55.9901 15.744C55.9901 15.952 56.0461 16.104 56.1581 16.2C56.2861 16.296 56.4701 16.344 56.7101 16.344C56.9981 16.344 57.2781 16.296 57.5501 16.2C57.8221 16.088 58.0061 16.016 58.1021 15.984L57.8381 17.52C57.6781 17.616 57.4621 17.72 57.1901 17.832C56.9341 17.944 56.6381 18.032 56.3021 18.096C55.9821 18.176 55.6301 18.216 55.2461 18.216ZM63.7303 19.608L60.9463 8.112C60.9143 7.904 60.8423 7.752 60.7303 7.656C60.6343 7.544 60.4903 7.456 60.2983 7.392C60.1223 7.312 59.8823 7.248 59.5783 7.2L59.3383 7.152L59.5783 5.736H64.0663L66.1303 15.552L64.7383 18.384L63.7303 19.608ZM65.2663 16.08C65.6343 15.216 65.9943 14.36 66.3463 13.512C66.7143 12.648 67.0743 11.784 67.4263 10.92C67.7783 10.056 68.1303 9.192 68.4823 8.328C68.8343 7.464 69.1863 6.6 69.5383 5.736H72.2263L72.2023 6C71.8023 6.768 71.3943 7.544 70.9783 8.328C70.5783 9.112 70.1703 9.888 69.7543 10.656C69.3543 11.424 68.9463 12.2 68.5303 12.984C68.1143 13.752 67.6983 14.528 67.2823 15.312C66.8823 16.08 66.4743 16.848 66.0583 17.616C65.4823 18.672 64.9383 19.576 64.4263 20.328C63.9143 21.096 63.4103 21.72 62.9143 22.2C62.4343 22.68 61.9383 23.032 61.4263 23.256C60.9143 23.48 60.3783 23.592 59.8183 23.592C59.2423 23.592 58.7703 23.528 58.4023 23.4C58.0343 23.272 57.7943 23.176 57.6823 23.112L58.1623 20.4C58.2903 20.448 58.5223 20.536 58.8583 20.664C59.2103 20.808 59.6663 20.88 60.2263 20.88C60.6103 20.88 60.9703 20.808 61.3063 20.664C61.6583 20.536 61.9943 20.32 62.3143 20.016C62.6343 19.728 62.9623 19.336 63.2983 18.84C63.6343 18.36 63.9783 17.768 64.3303 17.064L65.2663 16.08ZM18.8351 38.24C17.9551 38.24 17.1551 38.136 16.4351 37.928C15.7151 37.704 15.0831 37.376 14.5391 36.944C14.0111 36.512 13.5631 35.992 13.1951 35.384C12.8431 34.76 12.5791 34.04 12.4031 33.224C12.5471 33.336 12.7151 33.44 12.9071 33.536C13.0991 33.632 13.2751 33.712 13.4351 33.776C13.6111 33.824 13.6991 33.864 13.6991 33.896L12.5471 38H10.7951L11.8271 32.6H13.7951C13.9231 33.176 14.1311 33.704 14.4191 34.184C14.7071 34.664 15.0591 35.072 15.4751 35.408C15.8911 35.744 16.3631 36.008 16.8911 36.2C17.4191 36.376 17.9951 36.464 18.6191 36.464C19.2591 36.464 19.7951 36.368 20.2271 36.176C20.6751 35.984 21.0111 35.704 21.2351 35.336C21.4751 34.968 21.5951 34.52 21.5951 33.992C21.5951 33.56 21.4831 33.184 21.2591 32.864C21.0511 32.544 20.7551 32.264 20.3711 32.024C20.0031 31.784 19.5791 31.56 19.0991 31.352C18.6351 31.144 18.1391 30.92 17.6111 30.68C16.8591 30.328 16.1631 29.936 15.5231 29.504C14.8991 29.072 14.3951 28.552 14.0111 27.944C13.6431 27.32 13.4591 26.552 13.4591 25.64C13.4591 24.664 13.6831 23.808 14.1311 23.072C14.5951 22.336 15.2511 21.76 16.0991 21.344C16.9631 20.928 17.9871 20.72 19.1711 20.72C20.0991 20.72 20.9151 20.888 21.6191 21.224C22.3391 21.56 22.9151 22.032 23.3471 22.64C23.7951 23.248 24.0831 23.96 24.2111 24.776C24.0991 24.728 23.9631 24.688 23.8031 24.656C23.6591 24.608 23.5151 24.568 23.3711 24.536C23.2271 24.488 23.0911 24.44 22.9631 24.392L23.9951 21.056H25.6271L24.8351 25.496H23.0111C22.9151 24.936 22.6991 24.432 22.3631 23.984C22.0271 23.52 21.6031 23.16 21.0911 22.904C20.5791 22.632 20.0031 22.496 19.3631 22.496C18.7871 22.496 18.2991 22.592 17.8991 22.784C17.4991 22.976 17.1951 23.232 16.9871 23.552C16.7951 23.872 16.6991 24.256 16.6991 24.704C16.6991 25.12 16.7951 25.472 16.9871 25.76C17.1791 26.048 17.4431 26.304 17.7791 26.528C18.1311 26.736 18.5231 26.936 18.9551 27.128C19.4031 27.32 19.8751 27.52 20.3711 27.728C20.9631 27.984 21.5311 28.264 22.0751 28.568C22.6351 28.872 23.1231 29.224 23.5391 29.624C23.9711 30.024 24.3151 30.488 24.5711 31.016C24.8271 31.528 24.9551 32.128 24.9551 32.816C24.9551 33.664 24.8031 34.424 24.4991 35.096C24.1951 35.768 23.7711 36.336 23.2271 36.8C22.6831 37.264 22.0351 37.624 21.2831 37.88C20.5471 38.12 19.7311 38.24 18.8351 38.24ZM26.975 38L29.663 22.712C29.711 22.504 29.687 22.352 29.591 22.256C29.511 22.144 29.375 22.056 29.183 21.992C28.991 21.912 28.735 21.848 28.415 21.8L28.175 21.752L28.415 20.36H33.695L30.599 38H26.975ZM38.999 33.68C38.935 34.016 38.879 34.32 38.831 34.592C38.783 34.848 38.743 35.072 38.711 35.264C38.679 35.456 38.663 35.616 38.663 35.744C38.663 35.952 38.719 36.104 38.831 36.2C38.959 36.296 39.135 36.344 39.359 36.344C39.551 36.344 39.735 36.32 39.911 36.272C40.103 36.224 40.271 36.176 40.415 36.128C40.575 36.064 40.687 36.016 40.751 35.984L40.463 37.496C40.287 37.608 40.063 37.728 39.791 37.856C39.519 37.968 39.215 38.056 38.879 38.12C38.559 38.184 38.215 38.216 37.847 38.216C37.303 38.216 36.823 38.128 36.407 37.952C35.991 37.776 35.663 37.512 35.423 37.16C35.199 36.792 35.087 36.336 35.087 35.792C35.087 35.584 35.095 35.368 35.111 35.144C35.143 34.904 35.183 34.624 35.231 34.304C35.279 33.968 35.351 33.568 35.447 33.104L35.975 30.392C36.055 30.008 36.111 29.696 36.143 29.456C36.191 29.2 36.215 28.968 36.215 28.76C36.215 28.408 36.135 28.128 35.975 27.92C35.815 27.696 35.535 27.584 35.135 27.584C34.735 27.584 34.319 27.72 33.887 27.992C33.471 28.264 33.047 28.656 32.615 29.168C32.183 29.68 31.751 30.312 31.319 31.064L30.887 30.152C31.463 29.208 32.039 28.392 32.615 27.704C33.191 27 33.815 26.456 34.487 26.072C35.175 25.688 35.943 25.496 36.791 25.496C37.447 25.496 37.999 25.616 38.447 25.856C38.911 26.08 39.263 26.408 39.503 26.84C39.759 27.256 39.887 27.76 39.887 28.352C39.887 28.624 39.863 28.944 39.815 29.312C39.767 29.664 39.695 30.096 39.599 30.608L38.999 33.68ZM51.21 33.272C51.322 32.952 51.402 32.624 51.45 32.288C51.514 31.936 51.562 31.6 51.594 31.28C51.626 30.944 51.642 30.616 51.642 30.296C51.642 29.656 51.554 29.104 51.378 28.64C51.202 28.176 50.946 27.824 50.61 27.584C50.274 27.328 49.866 27.2 49.386 27.2C49.018 27.2 48.674 27.296 48.354 27.488C48.05 27.664 47.77 27.904 47.514 28.208C47.274 28.496 47.058 28.848 46.866 29.264C46.69 29.664 46.538 30.088 46.41 30.536C46.314 30.856 46.234 31.192 46.17 31.544C46.106 31.88 46.058 32.216 46.026 32.552C46.01 32.872 46.002 33.192 46.002 33.512C46.002 34.152 46.09 34.704 46.266 35.168C46.442 35.632 46.698 35.992 47.034 36.248C47.37 36.488 47.77 36.608 48.234 36.608C48.618 36.608 48.962 36.52 49.266 36.344C49.57 36.152 49.842 35.912 50.082 35.624C50.338 35.32 50.554 34.968 50.73 34.568C50.922 34.152 51.082 33.72 51.21 33.272ZM42.234 32.528C42.234 31.712 42.346 30.944 42.57 30.224C42.794 29.504 43.114 28.856 43.53 28.28C43.946 27.704 44.442 27.208 45.018 26.792C45.61 26.376 46.266 26.056 46.986 25.832C47.706 25.608 48.474 25.496 49.29 25.496C50.49 25.496 51.546 25.736 52.458 26.216C53.37 26.68 54.082 27.344 54.594 28.208C55.122 29.072 55.386 30.104 55.386 31.304C55.386 32.12 55.274 32.888 55.05 33.608C54.826 34.312 54.506 34.96 54.09 35.552C53.674 36.128 53.178 36.624 52.602 37.04C52.026 37.44 51.378 37.752 50.658 37.976C49.938 38.2 49.162 38.312 48.33 38.312C47.146 38.312 46.098 38.08 45.186 37.616C44.274 37.152 43.554 36.488 43.026 35.624C42.498 34.744 42.234 33.712 42.234 32.528ZM54.8105 43.352L55.0505 41.984H55.0745C55.5225 41.984 55.8985 41.936 56.2025 41.84C56.5065 41.744 56.6825 41.544 56.7305 41.24L59.0825 28.088C59.1305 27.896 59.1065 27.744 59.0105 27.632C58.9305 27.52 58.7865 27.432 58.5785 27.368C58.3865 27.304 58.1385 27.248 57.8345 27.2L57.5465 27.152L57.8105 25.736H62.8505L62.2985 29.168L62.5865 28.64L60.2825 41.768C60.2825 41.8 60.3305 41.832 60.4265 41.864C60.5385 41.896 60.6745 41.92 60.8345 41.936C61.0105 41.952 61.1865 41.96 61.3625 41.96C61.5545 41.976 61.7305 41.984 61.8905 41.984H62.2985L62.0825 43.352H54.8105ZM58.9865 35.072L60.6425 34.352C60.7225 34.832 60.8745 35.248 61.0985 35.6C61.3225 35.936 61.6105 36.2 61.9625 36.392C62.3305 36.584 62.7545 36.68 63.2345 36.68C63.7145 36.68 64.1545 36.552 64.5545 36.296C64.9705 36.04 65.3385 35.696 65.6585 35.264C65.9785 34.816 66.2505 34.312 66.4745 33.752C66.6985 33.192 66.8665 32.608 66.9785 32C67.0905 31.376 67.1465 30.768 67.1465 30.176C67.1465 29.552 67.0825 29.04 66.9545 28.64C66.8425 28.24 66.6585 27.944 66.4025 27.752C66.1625 27.56 65.8425 27.464 65.4425 27.464C64.9945 27.464 64.5625 27.608 64.1465 27.896C63.7465 28.168 63.3385 28.576 62.9225 29.12C62.5065 29.648 62.0665 30.312 61.6025 31.112L61.0265 30.488C61.6025 29.464 62.1705 28.584 62.7305 27.848C63.2905 27.096 63.8905 26.52 64.5305 26.12C65.1865 25.704 65.9305 25.496 66.7625 25.496C67.5945 25.496 68.3145 25.688 68.9225 26.072C69.5465 26.456 70.0345 27.016 70.3865 27.752C70.7385 28.472 70.9145 29.368 70.9145 30.44C70.9145 31.256 70.8025 32.056 70.5785 32.84C70.3545 33.624 70.0265 34.352 69.5945 35.024C69.1625 35.68 68.6425 36.256 68.0345 36.752C67.4425 37.232 66.7705 37.616 66.0185 37.904C65.2665 38.176 64.4505 38.312 63.5705 38.312C62.7225 38.312 61.9865 38.16 61.3625 37.856C60.7545 37.552 60.2585 37.16 59.8745 36.68C59.4905 36.184 59.1945 35.648 58.9865 35.072Z" fill="#29180F"/>
</svg>
